<?xml version="1.0" encoding="iso-8859-1"?>
<!-- Generator: Adobe Illustrator 19.0.0, SVG Export Plug-In . SVG Version: 6.00 Build 0)  -->
<svg version="1.1" id="Capa_1" xmlns="http://www.w3.org/2000/svg" xmlns:xlink="http://www.w3.org/1999/xlink" x="0px" y="0px"
	 viewBox="0 0 511.998 511.998" style="enable-background:new 0 0 511.998 511.998;" fill="#FFFFFF" xml:space="preserve">
<g>
	<g>
		<path d="M458.854,113.935c2.927,2.928,6.862,4.515,10.899,4.515c1.263,0,2.535-0.154,3.79-0.474
			c5.266-1.336,9.441-5.345,10.986-10.554l26.004-87.624c1.608-5.42,0.12-11.286-3.877-15.284
			c-3.997-3.999-9.867-5.485-15.284-3.877L403.747,26.64c-5.208,1.545-9.219,5.718-10.554,10.986
			c-1.337,5.266,0.198,10.848,4.041,14.689l19.912,19.912l-51.801,51.801c-23.69-21.975-49.208-40.777-76.057-55.992
			c-31.126-17.638-63.35-30.093-95.778-37.019c-33.009-7.051-65.459-8.206-96.448-3.431C64.846,32.55,34.853,43.834,7.916,61.125
			c-3.924,2.52-6.498,6.682-6.999,11.32c-0.501,4.636,1.126,9.25,4.425,12.549L204.86,284.511l-41.276,41.276l-49.32,7.582
			c-3.241,0.498-6.238,2.017-8.557,4.336L56.85,386.564c-2.891,2.891-4.515,6.811-4.515,10.898s1.624,8.009,4.515,10.898
			l45.958,45.957c3.01,3.01,6.955,4.515,10.898,4.515c3.944,0,7.89-1.505,10.898-4.515l48.857-48.857
			c2.319-2.318,3.837-5.316,4.336-8.557l7.583-49.319l41.277-41.277l201.174,201.175c2.906,2.906,6.832,4.515,10.897,4.515
			c0.549,0,1.101-0.029,1.652-0.088c4.637-0.499,8.799-3.073,11.32-6.999c17.291-26.937,28.576-56.929,33.54-89.146
			c4.774-30.988,3.62-63.438-3.431-96.449c-6.926-32.428-19.381-64.651-37.019-95.778c-15.583-27.5-34.918-53.61-57.583-77.782
			l51.734-51.734L458.854,113.935z M148.095,387.232l-34.39,34.39l-24.16-24.159l34.39-34.391l28.549-4.389L148.095,387.232z
			 M226.658,262.712L41.356,77.41c89.608-45.863,207.091-19.487,302.182,68.423L226.658,262.712z M435.415,471.47l-186.96-186.96
			l116.942-116.942C454.585,262.96,481.555,381.321,435.415,471.47z M472.894,38.274l-10.551,35.554l-25.004-25.003L472.894,38.274z
			"/>
	</g>
</g>
<g>
</g>
<g>
</g>
<g>
</g>
<g>
</g>
<g>
</g>
<g>
</g>
<g>
</g>
<g>
</g>
<g>
</g>
<g>
</g>
<g>
</g>
<g>
</g>
<g>
</g>
<g>
</g>
<g>
</g>
</svg>
