<?xml version="1.0" encoding="iso-8859-1"?>
<!-- Generator: Adobe Illustrator 18.0.0, SVG Export Plug-In . SVG Version: 6.00 Build 0)  -->
<!DOCTYPE svg PUBLIC "-//W3C//DTD SVG 1.1//EN" "http://www.w3.org/Graphics/SVG/1.1/DTD/svg11.dtd">
<svg version="1.1" id="Capa_1" xmlns="http://www.w3.org/2000/svg" xmlns:xlink="http://www.w3.org/1999/xlink" x="0px" y="0px"
	 viewBox="0 0 297 297" style="enable-background:new 0 0 297 297;" fill="#FFFFFF" xml:space="preserve">
<path d="M294.072,46.63L250.37,2.929c-3.906-3.904-10.236-3.904-14.143,0c-3.905,3.905-3.905,10.237,0,14.143l3.686,3.686
	l-41.324,41.325l-9.569-9.569c-1.876-1.875-4.419-2.929-7.071-2.929s-5.195,1.054-7.071,2.929L47.073,180.317
	c-12.947,12.948-12.947,34.016,0,46.964l4.251,4.251L2.929,279.929c-3.905,3.905-3.905,10.237,0,14.143
	C4.882,296.023,7.441,297,10,297s5.118-0.977,7.071-2.929l48.396-48.396l4.251,4.251c6.475,6.474,14.979,9.711,23.481,9.711
	c8.504,0,17.008-3.237,23.482-9.711l127.805-127.804c1.875-1.876,2.929-4.419,2.929-7.071s-1.054-5.195-2.929-7.071l-9.569-9.569
	l41.325-41.324l3.686,3.686c1.953,1.952,4.512,2.929,7.071,2.929s5.118-0.977,7.071-2.929
	C297.977,56.867,297.977,50.535,294.072,46.63z M102.54,235.784c-5.148,5.151-13.528,5.149-18.679,0l-22.646-22.646
	c-5.15-5.149-5.15-13.529,0-18.679l11.919-11.919l10.746,10.746c1.367,1.366,3.159,2.05,4.95,2.05s3.583-0.684,4.95-2.05
	c2.733-2.734,2.733-7.166,0-9.9L83.036,172.64l12.286-12.287l10.745,10.745c1.367,1.366,3.159,2.05,4.95,2.05s3.583-0.684,4.95-2.05
	c2.733-2.734,2.733-7.166,0-9.9l-10.745-10.745l12.286-12.286l10.745,10.745c1.367,1.366,3.159,2.05,4.95,2.05
	s3.583-0.684,4.95-2.05c2.733-2.734,2.733-7.166,0-9.9l-10.745-10.745l10.166-10.166l41.325,41.325L102.54,235.784z
	 M193.042,145.283l-41.325-41.325l30.231-30.232l41.325,41.325L193.042,145.283z M220.776,84.269l-8.045-8.045l41.325-41.325
	l8.045,8.045L220.776,84.269z"/>
<g>
</g>
<g>
</g>
<g>
</g>
<g>
</g>
<g>
</g>
<g>
</g>
<g>
</g>
<g>
</g>
<g>
</g>
<g>
</g>
<g>
</g>
<g>
</g>
<g>
</g>
<g>
</g>
<g>
</g>
</svg>
