<?xml version="1.0" standalone="no"?>
<!DOCTYPE svg PUBLIC "-//W3C//DTD SVG 20010904//EN"
 "http://www.w3.org/TR/2001/REC-SVG-20010904/DTD/svg10.dtd">
<svg version="1.0" xmlns="http://www.w3.org/2000/svg"
 width="1997.000000pt" height="1912.000000pt" viewBox="0 0 1997.000000 1912.000000"
 preserveAspectRatio="xMidYMid meet">
<metadata>
Created by potrace 1.16, written by Peter Selinger 2001-2019
</metadata>
<g transform="translate(0.000000,1912.000000) scale(0.100000,-0.100000)"
fill="#FFFFFF" stroke="none">
<path d="M9490 17569 c-909 -70 -1715 -251 -2515 -564 -1479 -578 -2785 -1567
-3717 -2813 -688 -919 -1155 -1948 -1372 -3024 -162 -806 -185 -1598 -71
-2440 276 -2039 1295 -3870 2892 -5200 1261 -1050 2847 -1726 4523 -1927 380
-46 534 -55 910 -56 378 0 505 8 870 56 1660 215 3237 931 4530 2057 181 158
502 473 670 657 1016 1118 1675 2443 1914 3856 72 419 99 756 99 1199 0 334
-9 516 -43 820 -328 2931 -2279 5546 -5025 6732 -789 342 -1602 548 -2496 634
-193 18 -987 28 -1169 13z m1776 -938 c680 -104 1257 -444 1709 -1011 94 -117
199 -269 191 -277 -7 -7 -89 40 -266 152 -272 173 -431 251 -595 291 -108 27
-280 25 -375 -5 -146 -45 -290 -139 -410 -268 -348 -371 -490 -880 -395 -1411
77 -434 307 -879 696 -1347 46 -55 241 -260 434 -455 480 -485 706 -736 1026
-1137 963 -1204 1561 -2382 1706 -3358 26 -182 24 -532 -5 -785 -116 -1002
-281 -1648 -576 -2255 -513 -1057 -1354 -1731 -2551 -2045 -160 -42 -488 -110
-531 -110 -23 0 -12 15 98 133 601 641 1042 1291 1275 1882 63 159 134 404
159 545 26 143 26 489 1 635 -42 237 -105 433 -212 650 -63 128 -176 317 -235
392 -17 21 -19 18 -155 -207 -224 -370 -376 -552 -563 -677 -156 -105 -243
-130 -552 -158 -661 -59 -1194 -36 -1411 61 -67 30 -89 54 -89 97 0 37 25 47
223 86 408 82 622 184 823 392 310 323 405 800 308 1554 -96 759 -388 1383
-802 1716 -70 56 -210 146 -215 138 -2 -2 -21 -49 -42 -104 -51 -130 -172
-368 -263 -519 -40 -66 -72 -127 -72 -136 0 -10 -45 -82 -101 -161 -219 -312
-378 -496 -759 -884 -328 -334 -494 -516 -674 -741 -773 -965 -1020 -1833
-746 -2628 108 -313 315 -718 549 -1071 236 -357 590 -778 858 -1020 61 -55
112 -103 112 -107 4 -28 -402 -31 -545 -5 -469 87 -922 317 -1399 711 -165
136 -543 518 -704 711 -303 364 -605 794 -725 1032 -230 461 -366 908 -428
1413 -20 163 -17 760 5 922 54 401 138 729 289 1133 126 336 204 461 520 830
238 278 332 398 439 558 161 243 260 472 304 707 25 129 25 374 1 484 -81 371
-312 607 -691 707 -112 30 -346 37 -471 15 -116 -20 -240 -59 -326 -102 -61
-31 -68 -32 -68 -16 0 11 12 37 26 58 85 128 319 303 570 428 706 350 1570
389 2473 112 63 -20 117 -33 119 -31 5 4 -49 99 -329 585 -247 429 -360 708
-400 989 -26 184 0 459 62 651 168 520 702 1180 1304 1609 310 221 728 434
1050 535 191 60 463 115 665 135 154 15 534 6 686 -18z"/>
</g>
</svg>
